<svg
  width="28"
  height="28"
  viewBox="0 0 28 28"
  fill="none"
  xmlns="http://www.w3.org/2000/svg"
  style="width: 28px; height: 28px;"
  preserveAspectRatio="none"
>
  <path
    d="M12.3657 4.41699L12.3663 4.41699C14.4739 4.41954 16.4944 5.25794 17.9847 6.74824C19.475 8.23854 20.3135 10.2591 20.316 12.3667V12.3669C20.3164 14.147 19.7173 15.873 18.6191 17.2683L23.5352 22.1933C23.5356 22.1937 23.5361 22.1942 23.5366 22.1946C23.626 22.2821 23.6968 22.3864 23.7453 22.5014C23.7942 22.6172 23.8192 22.7415 23.8192 22.867C23.8192 22.9924 23.7942 23.1168 23.7453 23.2326C23.6967 23.348 23.6255 23.4526 23.5357 23.5402C23.5355 23.5404 23.5354 23.5405 23.5352 23.5407L23.3607 23.3617C23.2284 23.4913 23.0512 23.5648 22.866 23.567L12.3657 4.41699ZM12.3657 4.41699C10.2581 4.41954 8.23746 5.25793 6.74715 6.74824C5.25684 8.23855 4.41857 10.2591 4.41602 12.3667L4.41602 12.3673C4.41857 14.4749 5.25684 16.4955 6.74715 17.9858C8.23742 19.476 10.258 20.3144 12.3656 20.317M12.3657 4.41699L12.3656 20.317M12.3656 20.317C12.3656 20.317 12.3657 20.317 12.3657 20.317L12.366 20.067L12.3656 20.317ZM6.31602 12.367C6.31848 10.7632 6.95671 9.22579 8.09077 8.09172C9.22484 6.95766 10.7622 6.31946 12.366 6.31699C13.9698 6.31946 15.5072 6.95766 16.6413 8.09172C17.7753 9.22579 18.4135 10.7632 18.416 12.367C18.4135 13.9708 17.7753 15.5082 16.6413 16.6423C15.5072 17.7763 13.9698 18.4145 12.366 18.417C10.7622 18.4145 9.22484 17.7763 8.09077 16.6423C6.95671 15.5082 6.31848 13.9708 6.31602 12.367Z"
    fill="white"
    stroke="white"
    stroke-width="0.5"
  ></path>
</svg>
